<?xml version="1.0" encoding="UTF-8"?>
<svg width="180px" height="180px" viewBox="0 0 180 180" version="1.1" xmlns="http://www.w3.org/2000/svg" xmlns:xlink="http://www.w3.org/1999/xlink">
    <g stroke="none" stroke-width="1" fill="none" fill-rule="evenodd">
        <path d="M89.958,36.536 C61.392,36.536 38.142,59.814 38.142,88.408 C38.142,117.002 61.392,140.281 89.958,140.281 C118.524,140.281 141.775,117.002 141.775,88.408 C141.775,59.814 118.524,36.536 89.958,36.536 M89.958,149.25 C56.38,149.25 29.19,122.03 29.19,88.408 C29.19,54.785 56.38,27.566 89.958,27.566 C123.536,27.566 150.727,54.785 150.727,88.408 C150.727,122.03 123.536,149.25 89.958,149.25" fill="#000000" fill-rule="nonzero"></path>
        <polygon fill="#000000" fill-rule="nonzero" points="102.963 88.408 102.963 39.552 117.391 39.552 117.391 102.871 117.391 102.871 117.391 139.268 102.963 139.268 68.523 71.511 68.523 139.268 54.095 139.268 54.095 39.552 68.523 39.552 102.963 107.309"></polygon>
    </g>
</svg> 